HIERARCHY
ROOT Root
{
	OFFSET 0.00 0.00 0.00
	CHANNELS 6 Xposition Yposition Zposition Xrotation Yrotation Zrotation
	JOINT L_Femur
	{
		OFFSET 2.78527 0.00000 0.00000
		CHANNELS 3 Xrotation Yrotation Zrotation
		JOINT L_Tibia
		{
			OFFSET 0.00000 -16.41095 0.00000
			CHANNELS 3 Xrotation Yrotation Zrotation
			JOINT L_Foot
			{
				OFFSET 0.00000 -14.21163 0.00000
				CHANNELS 3 Xrotation Yrotation Zrotation
				JOINT L_Toe
				{
					OFFSET 0.00000 -1.60827 6.00215
					CHANNELS 3 Xrotation Yrotation Zrotation
					End Site
					{
						OFFSET 0.00000 0.00000 2.95275
					}
				}
			}
		}
	}
	JOINT R_Femur
	{
		OFFSET -2.78527 0.00000 0.00000
		CHANNELS 3 Xrotation Yrotation Zrotation
		JOINT R_Tibia
		{
			OFFSET 0.00000 -16.41095 0.00000
			CHANNELS 3 Xrotation Yrotation Zrotation
			JOINT R_Foot
			{
				OFFSET 0.00000 -14.21163 0.00000
				CHANNELS 3 Xrotation Yrotation Zrotation
				JOINT R_Toe
				{
					OFFSET 0.00000 -1.60827 6.00215
					CHANNELS 3 Xrotation Yrotation Zrotation
					End Site
					{
						OFFSET 0.00000 0.00000 2.95275
					}
				}
			}
		}
	}
	JOINT LowerBack
	{
		OFFSET 0.00000 0.03937 0.00000
		CHANNELS 3 Xrotation Yrotation Zrotation
		JOINT Thorax
		{
			OFFSET 0.00000 7.01329 0.00000
			CHANNELS 3 Xrotation Yrotation Zrotation
			JOINT Neck
			{
				OFFSET 0.00000 7.25825 0.00000
				CHANNELS 3 Xrotation Yrotation Zrotation
				JOINT Head
				{
					OFFSET 0.00000 5.63334 0.00000
					CHANNELS 3 Xrotation Yrotation Zrotation
					End Site
					{
						OFFSET 0.00000 4.52755 0.00000
					}
				}
			}
			JOINT L_Collar
			{
				OFFSET 0.00000 7.25825 0.00000
				CHANNELS 3 Xrotation Yrotation Zrotation
				JOINT L_Humerus
				{
					OFFSET 6.91821 -0.00003 0.00000
					CHANNELS 3 Xrotation Yrotation Zrotation
					JOINT L_Elbow
					{
						OFFSET 10.34006 -0.00004 0.00000
						CHANNELS 3 Xrotation Yrotation Zrotation
						JOINT L_Wrist
						{
							OFFSET 7.25554 -0.00003 0.00000
							CHANNELS 3 Xrotation Yrotation Zrotation
							JOINT L_Thumb
							{
								OFFSET 0.00000 0.00000 0.00000
								CHANNELS 3 Xrotation Yrotation Zrotation
								End Site
								{
									OFFSET 0.00000 0.00000 3.93700
								}
							}
							JOINT L_Wrist_End
							{
								OFFSET 3.93700 -0.00001 0.00000
								CHANNELS 3 Xrotation Yrotation Zrotation
							}
						}
					}
				}
			}
			JOINT R_Collar
			{
				OFFSET 0.00000 7.25825 0.00000
				CHANNELS 3 Xrotation Yrotation Zrotation
				JOINT R_Humerus
				{
					OFFSET -6.91821 -0.00003 0.00000
					CHANNELS 3 Xrotation Yrotation Zrotation
					JOINT R_Elbow
					{
						OFFSET -10.34006 -0.00004 0.00000
						CHANNELS 3 Xrotation Yrotation Zrotation
						JOINT R_Wrist
						{
							OFFSET -7.25554 -0.00003 0.00000
							CHANNELS 3 Xrotation Yrotation Zrotation
							JOINT R_Thumb
							{
								OFFSET 0.00000 0.00000 0.00000
								CHANNELS 3 Xrotation Yrotation Zrotation
								End Site
								{
									OFFSET 0.00000 0.00000 3.93700
								}
							}
							JOINT R_Wrist_End
							{
								OFFSET -5.39369 -0.00002 0.00000
								CHANNELS 3 Xrotation Yrotation Zrotation
							}
						}
					}
				}
			}
		}
	}
}
MOTION
Frames: 7
Frame Time: 0.033332
 98.1973 23.3179 4.3896 134.8853 -40.2246 137.5841 -101.9901 4.0059 32.3488 68.6212 -0.0000 0.0000 -5.2742 -11.2086 -1.9351 -7.9028 -0.0000 0.0000 -65.9617 10.5953 -0.4359 88.1332 -0.0000 0.0000 -55.7359 2.8683 10.2609 -8.5957 -0.0000 -0.0000 1.6564 -0.8534 -20.6893 27.3090 7.3722 27.1258 4.7836 -49.8311 -17.8604 -82.5744 28.8406 64.0051 -7.6184 11.6604 7.5497 -76.9402 -10.5134 -69.6299 -179.9993 -72.9168 -179.9991 -26.5900 -6.4862 -2.1821 -0.0000 0.0000 -0.0000 -0.0000 0.0000 -0.0000 7.0439 3.6648 -15.3355 -45.8856 0.9648 81.1910 -179.9996 61.8546 179.9993 -3.4067 6.0135 -6.1292 -0.0000 0.0000 -0.0000 -0.0000 0.0000 -0.0000
 97.5618 24.1490 3.7168 133.7074 -43.4756 133.8434 -98.7085 5.4482 31.8171 65.9603 -0.0000 0.0000 -6.1580 -14.1032 -2.5560 -7.8574 -0.0000 -0.0000 -59.6258 6.8667 -0.5177 83.0630 -0.0000 0.0000 -54.7033 1.9324 9.0303 -8.6265 -0.0000 -0.0000 1.0193 -0.5694 -18.9770 26.0972 5.3074 24.1504 4.2406 -52.5716 -15.7805 -83.4349 31.0268 67.0263 -6.3036 12.7980 7.6185 -71.9718 -14.8929 -71.5993 -179.9993 -72.9970 -179.9991 -24.9237 -5.2119 -3.5949 -0.0000 -0.0000 0.0000 -0.0000 -0.0000 0.0000 6.2388 3.0783 -14.7073 -47.8092 0.2141 81.3337 -179.9997 54.5275 179.9994 -0.8914 4.7281 -5.8791 -0.0000 -0.0000 0.0000 -0.0000 -0.0000 0.0000
 96.7366 25.0930 2.9926 130.9621 -47.4225 129.0464 -94.7632 7.3924 30.5997 63.2164 -0.0000 0.0000 -8.4518 -13.5387 -2.6281 -7.9689 0.0000 0.0000 -52.4955 2.5338 -1.0921 76.8148 -0.0000 0.0000 -53.0391 1.3552 7.7616 -8.9311 0.0000 0.0000 1.0390 -0.8470 -16.6864 22.3501 2.9592 19.9267 5.1167 -55.0472 -12.8030 -81.8886 33.0891 68.6428 -4.6354 13.1676 8.0550 -66.6851 -18.8363 -74.8819 -179.9993 -72.9751 -179.9991 -25.0468 -4.1634 -5.2545 -0.0000 0.0000 -0.0000 -0.0000 0.0000 -0.0000 5.2794 2.2909 -13.8687 -51.2532 0.4829 80.4766 -179.9998 49.5082 179.9995 1.9326 3.1054 -5.8935 -0.0000 0.0000 -0.0000 -0.0000 0.0000 -0.0000
 95.6817 26.1173 2.2621 127.4722 -51.7186 123.9727 -89.9038 10.0287 29.6702 60.8455 -0.0000 0.0000 -13.1543 -9.3550 -1.9769 -8.1227 0.0000 0.0000 -44.7525 -1.7165 -1.4592 70.1748 -0.0000 0.0000 -49.6936 0.9920 6.8628 -9.4337 0.0000 0.0000 1.2363 -1.2677 -14.9145 18.3089 1.2884 15.4361 5.7931 -56.6369 -9.9345 -78.7028 34.9162 68.9089 -3.5205 14.1192 8.9495 -63.2123 -21.7010 -80.1507 -179.9993 -72.9726 -179.9991 -23.1474 -2.9512 -6.6403 -0.0000 -0.0000 0.0000 -0.0000 -0.0000 0.0000 3.2838 2.2741 -14.2843 -54.9796 0.6905 78.8617 -179.9998 46.6099 179.9995 4.1748 1.8976 -5.5649 -0.0000 0.0000 -0.0000 -0.0000 0.0000 -0.0000
 94.4410 27.1297 1.5790 122.1996 -55.9454 117.4424 -84.6361 12.9152 28.5702 57.4496 0.0000 0.0000 -15.7965 -8.3504 -2.1374 -8.0261 0.0000 0.0000 -37.9745 -5.6095 -1.5891 65.1493 -0.0000 0.0000 -43.6132 1.1277 6.9769 -11.1003 0.0000 0.0000 1.0079 -1.5497 -12.9015 14.3938 0.1341 10.4989 5.1842 -56.4043 -8.6955 -72.0738 36.4215 67.0502 -2.7823 14.4201 10.2562 -62.0932 -23.5054 -85.9543 -179.9993 -73.0938 -179.9991 -22.1537 -2.2928 -7.4768 -0.0000 0.0000 -0.0000 -0.0000 0.0000 -0.0000 2.4760 2.2177 -14.8508 -61.3535 1.7163 76.0207 -179.9998 47.3428 179.9995 8.0143 -0.3514 -5.1906 -0.0000 0.0000 -0.0000 -0.0000 0.0000 -0.0000
 93.0549 28.0916 1.0668 115.0279 -60.1721 109.5463 -78.1503 15.4292 26.5401 52.8068 -0.0000 0.0000 -14.9967 -8.4890 -3.1893 -8.0619 0.0000 0.0000 -32.8026 -8.8018 -2.1508 63.1399 -0.0000 0.0000 -34.6146 1.8444 8.3047 -13.2895 0.0000 -0.0000 1.0491 -1.7197 -11.2016 11.0946 -0.3021 6.4493 2.6003 -55.3268 -9.9350 -63.5109 36.9759 63.5641 -2.6943 13.6998 10.5690 -63.5379 -24.1255 -91.9559 -179.9993 -72.9685 -179.9991 -20.7695 -1.8099 -8.4679 -0.0000 -0.0000 0.0000 -0.0000 -0.0000 0.0000 1.4850 2.6041 -16.2648 -68.8372 3.6415 72.1726 -179.9997 53.1133 179.9994 12.7282 -3.0238 -5.2664 -0.0000 0.0000 -0.0000 -0.0000 0.0000 -0.0000
 91.6591 28.9129 0.7082 106.7699 -63.5166 100.5835 -71.8066 17.1695 24.4926 48.0984 -0.0000 0.0000 -12.9275 -10.7664 -3.9001 -8.4020 -0.0000 -0.0000 -28.9627 -11.2074 -2.4227 61.9286 0.0000 0.0000 -28.1097 2.0055 9.9152 -11.3545 -0.0000 0.0000 1.1393 -1.8512 -9.6125 8.2196 -0.3778 3.3436 -0.8311 -53.6806 -11.9663 -54.5506 37.9086 59.6540 -3.5860 12.4683 10.9137 -65.8002 -22.4488 -98.5363 -179.9993 -72.3508 -179.9991 -19.3263 -1.5390 -8.3468 -0.0000 0.0000 -0.0000 -0.0000 0.0000 -0.0000 0.4144 3.6493 -19.0414 -76.7689 6.2337 68.7777 -179.9995 66.5787 179.9993 17.6802 -5.4008 -5.6015 -0.0000 0.0000 -0.0000 -0.0000 0.0000 -0.0000
